<?xml version="1.0" encoding="UTF-8" standalone="no"?>
<!-- Created with Inkscape (http://www.inkscape.org/) -->

<svg
   version="1.1"
   id="svg1"
   width="97.919998"
   height="97.919998"
   viewBox="0 0 97.919998 97.919998"
   xml:space="preserve"
   xmlns="http://www.w3.org/2000/svg"
   xmlns:svg="http://www.w3.org/2000/svg"><defs
     id="defs1" /><g
     id="g1"
     style="display:inline"><path
       d="M 20.786555,87.675066 1.3491278,53.8313 c -1.79883707,-3.135229 -1.79883707,-6.997833 0,-10.133065 L 20.786555,9.8795634 C 22.59372,6.7359742 25.933226,4.8046708 29.530899,4.8046708 h 38.849872 c 3.606003,0 6.953835,1.9313034 8.744346,5.0748956 L 96.570871,43.714963 c 1.798836,3.135231 1.798836,6.997835 0,10.133064 L 77.133444,87.691786 c -1.807165,3.14359 -5.14667,5.074893 -8.744345,5.074893 H 29.555883 c -3.622657,-0.01671 -6.953835,-1.956384 -8.769331,-5.091613 z"
       fill="#ffffff"
       id="path1-5"
       style="display:inline;fill:#ffffff;fill-opacity:1;fill-rule:nonzero;stroke-width:0.320681" /><path
       d="M 22.412366,85.405189 4.1335583,53.702492 c -1.6988037,-2.939597 -1.6988037,-6.562049 0,-9.493319 L 22.412366,12.498148 c 1.707131,-2.947924 4.846591,-4.7549864 8.235871,-4.7549864 h 36.557615 c 3.38928,0 6.537067,1.8070624 8.235871,4.7549864 l 18.295462,31.69437 c 1.698804,2.939597 1.698804,6.562049 0,9.493319 L 75.45005,85.413516 c -1.707131,2.947925 -4.846591,4.754987 -8.235871,4.754987 H 30.664892 c -3.405935,0 -6.545395,-1.81539 -8.252526,-4.763314 z"
       fill="#7c4dff"
       id="path2-6"
       style="display:inline;fill:#6eafb5;fill-opacity:0.980392;fill-rule:nonzero;stroke-width:0.320036" /><g
       id="g36"
       style="display:inline;fill:#e5e5e5;fill-opacity:1"
       transform="translate(0.08775746,-0.09320142)"><path
         style="fill:#e5e5e5;fill-opacity:1;stroke:none;stroke-width:1px;stroke-linecap:butt;stroke-linejoin:miter;stroke-opacity:1"
         d="m 29.184345,46.122612 11.55229,-0.04154 v -3.763094 c -0.0172,0.884259 -1.896569,1.563675 -2.731357,1.638814 -2.413944,0.217278 -4.494944,0.150398 -6.73485,0 -1.045163,-0.07018 -1.951949,-0.559732 -3.072776,-1.310367 0.573582,1.005092 0.942312,1.807858 0.986693,3.476191 z"
         id="path2" /><path
         style="fill:#e5e5e5;fill-opacity:1;stroke:none;stroke-width:1px;stroke-linecap:butt;stroke-linejoin:miter;stroke-opacity:1"
         d="m 42.200236,46.122612 h 13.32639 v -4.009841 c 0,0.892873 -1.809858,1.754611 -2.392363,1.821574 -3.136892,0.360608 -4.993978,0.23633 -7.86576,0 -1.058896,-0.08714 -3.068267,-1.067341 -3.068267,-1.991929 z"
         id="path22" /><path
         style="fill:#e5e5e5;fill-opacity:1;stroke:none;stroke-width:1px;stroke-linecap:butt;stroke-linejoin:miter;stroke-opacity:1"
         d="M 68.557055,46.122612 H 57.023431 l -0.03165,-3.772246 c 0.0172,0.884259 1.896569,1.563675 2.731357,1.638814 2.413944,0.217278 4.494944,0.150398 6.73485,0 1.045163,-0.07018 1.951949,-0.559732 3.072776,-1.310367 -0.973712,1.181079 -0.973712,1.80973 -0.973712,3.443799 z"
         id="path24" /><path
         style="fill:#e5e5e5;fill-opacity:1;stroke:none;stroke-width:1px;stroke-linecap:butt;stroke-linejoin:miter;stroke-opacity:1"
         d="m 29.184345,55.027666 v 1.911894 l 39.37271,-0.01761 v -1.866044 c -0.180226,0.18651 -0.629704,0.369073 -1.007812,0.369073 h -8.824635 c -0.810019,0 -1.375414,-0.65174 -1.701177,-1.050799 h -1.496805 c -0.391182,0.388687 -1.077768,1.040942 -1.865556,1.050799 l -9.686717,0.0099 c -0.961209,-0.0099 -1.399669,-0.602415 -1.774117,-1.075132 l -1.463601,0.01494 c -0.424749,0.71662 -0.89194,1.050335 -1.410912,1.050337 h -8.843584 c -0.431655,-2e-6 -0.969653,-0.16634 -1.297794,-0.397315 z"
         id="path32" /></g><g
       id="g35"
       style="display:inline;fill:#fcfcfc;fill-opacity:1"
       transform="translate(0.08775746,-0.09320142)"><path
         style="fill:#fcfcfc;fill-opacity:1;stroke:none;stroke-width:1px;stroke-linecap:butt;stroke-linejoin:miter;stroke-opacity:1"
         d="M 29.184345,51.682498 V 48.29806 c 0,-0.237748 0.117188,-0.362748 0.362748,-0.362748 h 9.531841 c 0.85465,0 1.657701,0.984807 1.657701,1.461585 v 2.061784 c 0,1.056615 -1.140697,2.280764 -2.250108,2.280764 h -7.268541 c -0.74038,0 -2.033641,-0.871298 -2.033641,-2.056947 z"
         id="path29" /><path
         style="fill:#fcfcfc;fill-opacity:1;stroke:none;stroke-width:0.999192px;stroke-linecap:butt;stroke-linejoin:miter;stroke-opacity:1"
         d="M 68.557055,51.682498 V 48.29806 c 0,-0.237748 -0.116999,-0.362748 -0.362162,-0.362748 h -9.516439 c -0.85327,0 -1.655023,0.984807 -1.655023,1.461585 v 2.061784 c 0,1.056615 1.138854,2.280764 2.246472,2.280764 H 66.5267 c 0.739184,0 2.030355,-0.871298 2.030355,-2.056947 z"
         id="path30" /><path
         style="fill:#fcfcfc;fill-opacity:1;stroke:none;stroke-width:1px;stroke-linecap:butt;stroke-linejoin:miter;stroke-opacity:1"
         d="m 42.200236,49.884892 c 0,-0.812773 1.467272,-1.94958 2.22234,-1.94958 h 9.193936 c 1.08983,0 1.976534,1.123318 1.910114,1.66154 v 1.679379 c 0,0.988486 -1.050625,2.463214 -2.39625,2.463214 H 44.91579 c -0.830269,0 -2.715554,-0.745707 -2.715554,-2.24356 z"
         id="path31" /><g
         id="g34"
         style="fill:#fcfcfc;fill-opacity:1"><path
           style="fill:#fcfcfc;fill-opacity:1;stroke:none;stroke-width:1px;stroke-linecap:butt;stroke-linejoin:miter;stroke-opacity:1"
           d="m 24.070563,40.188835 v -2.62893 c 0.01234,-1.77664 2.092701,-5.326146 6.008985,-5.326146 h 8.030419 c 1.648215,0 2.626668,1.551835 2.626668,2.573795 v 7.51042 c -0.0172,0.884259 -1.896569,1.563675 -2.731357,1.638814 -2.413944,0.217278 -4.494944,0.150398 -6.73485,0 -1.045163,-0.07018 -1.951949,-0.559732 -3.072776,-1.310367 -1.034276,-1.149234 -1.795418,-2.196043 -4.127089,-2.457586 z"
           id="path1" /><path
           style="fill:#fcfcfc;fill-opacity:1;stroke:none;stroke-width:1px;stroke-linecap:butt;stroke-linejoin:miter;stroke-opacity:1"
           d="m 42.200236,34.368147 c 0,-0.944836 1.985091,-2.134388 2.627578,-2.134388 h 8.41295 c 0.796096,0 2.343315,1.227522 2.285862,2.370482 v 7.50853 c 0,0.892873 -1.809858,1.754611 -2.392363,1.821574 -3.136892,0.360608 -4.993978,0.23633 -7.86576,0 -1.058896,-0.08714 -3.068267,-1.067341 -3.068267,-1.991929 z"
           id="path21" /><path
           style="fill:#fcfcfc;fill-opacity:1;stroke:none;stroke-width:1px;stroke-linecap:butt;stroke-linejoin:miter;stroke-opacity:1"
           d="m 73.282856,40.252477 v -2.62893 c -0.01234,-1.77664 -1.717701,-5.357396 -5.633985,-5.357396 h -8.030419 c -1.648215,0 -2.626668,1.551835 -2.626668,2.573795 v 7.51042 c 0.0172,0.884259 1.896569,1.563675 2.731357,1.638814 2.413944,0.217278 4.494944,0.150398 6.73485,0 1.045163,-0.07018 1.951949,-0.559732 3.072776,-1.310367 1.034276,-1.149234 1.420418,-2.164793 3.752089,-2.426336 z"
           id="path23" /><path
           style="fill:#fcfcfc;fill-opacity:1;stroke:none;stroke-width:1px;stroke-linecap:butt;stroke-linejoin:miter;stroke-opacity:1"
           d="m 27.791555,61.48967 -0.03454,-15.367054 c 0.03454,-1.902319 -1.848422,-4.694924 -4.564167,-4.694924 -2.715746,0 -4.603501,1.670476 -4.603503,4.69492 2e-6,1.8127 2.587153,3.227986 3.814438,3.250989 v 10.827571 c 2e-6,0.644946 0.673123,1.288498 1.374287,1.288498 z"
           id="path25" /><path
           style="fill:#fcfcfc;fill-opacity:1;stroke:none;stroke-width:1px;stroke-linecap:butt;stroke-linejoin:miter;stroke-opacity:1"
           d="m 69.887019,61.48967 0.03454,-15.367054 c -0.03454,-1.902319 1.848422,-4.694924 4.564167,-4.694924 2.715746,0 4.603501,1.670476 4.603503,4.69492 -2e-6,1.8127 -2.587153,3.227986 -3.814438,3.250989 v 10.827571 c -2e-6,0.644946 -0.673123,1.288498 -1.374287,1.288498 z"
           id="path26" /><path
           style="fill:#fcfcfc;fill-opacity:1;stroke:none;stroke-width:1px;stroke-linecap:butt;stroke-linejoin:miter;stroke-opacity:1"
           d="m 22.403787,65.859407 5.387768,-0.02647 v -2.53125 l -5.387768,-0.238342 v 2.796059"
           id="path27" /><path
           style="fill:#fcfcfc;fill-opacity:1;stroke:none;stroke-width:1px;stroke-linecap:butt;stroke-linejoin:miter;stroke-opacity:1"
           d="m 75.065818,65.872642 -5.387768,-0.02647 v -2.53125 l 5.387768,-0.238342 v 2.796059"
           id="path28" /><path
           style="fill:#fcfcfc;fill-opacity:1;stroke:none;stroke-width:1px;stroke-linecap:butt;stroke-linejoin:miter;stroke-opacity:1"
           d="m 29.184345,56.93956 39.37271,-0.01761 v 4.874997 h -39.37271 z"
           id="path34" /></g></g></g></svg>
