<svg xmlns="http://www.w3.org/2000/svg" viewBox="0 0 140.708 65.486"><path d="M32.744.131C14.733.131.133 14.731.132 32.742c0 18.01 14.6 32.611 32.611 32.611 7.18-.004 14.158-2.378 19.475-6.481 5.066-3.485 11.523-5.499 18.136-5.5 6.615 0 13.074 2.013 17.748 5.19 5.051 4.182 12.34 6.787 19.863 6.791 18.01 0 32.61-14.6 32.61-32.61 0-18.01-14.6-32.611-32.61-32.611-7.522.004-14.812 2.61-19.347 6.477-4.35 3.342-11.21 5.64-18.264 5.65-7.053-.01-13.913-2.308-18.655-5.967-4.8-3.79-11.777-6.16-18.956-6.16Zm-.752 2.658c1.46-.02 2.922.043 4.372.219 4.464.527 8.918 2.046 12.684 4.622a33.582 33.582 0 0 0 14.372 6.58c8.579 1.636 17.872.266 25.287-4.468 1.985-1.395 3.895-2.927 6.098-3.981 4.2-2.02 8.678-2.974 13.334-2.97a30.16 30.16 0 0 1 8.79 1.35c7.282 2.253 13.57 7.44 17.262 14.097 3.548 6.34 4.595 13.978 3.016 21.025-1.79 8.382-7.46 15.77-14.986 19.833-7.833 4.333-17.642 4.743-25.911 1.281-2.868-1.059-5.267-2.992-7.791-4.658-10.072-6.167-23.318-6.592-33.858-1.327-2.936 1.36-5.358 3.573-8.249 5.014-4.94 2.581-10.73 3.633-16.207 3.186-7.299-.549-14.277-3.994-19.275-9.32-5.1-5.328-8.001-12.572-8.14-19.884-.171-6.325 1.81-12.746 5.491-17.948C13.6 7.778 22.814 2.936 31.992 2.789Z"/><path d="M32.891 19.504a13.239 13.239 0 0 0-13.24 13.239 13.239 13.239 0 0 0 13.24 13.238A13.239 13.239 0 0 0 46.13 32.743a13.239 13.239 0 0 0-13.24-13.24Zm.038 2.648c3.836-.021 7.564 2.254 9.34 5.656 2.124 3.958 1.343 9.218-1.87 12.366-2.884 3.04-7.647 3.959-11.496 2.353-4.281-1.605-6.99-6.298-6.545-10.8.377-5.001 4.809-9.274 9.802-9.54.257-.022.513-.033.769-.035zm75.007-2.648a13.239 13.239 0 0 0-13.239 13.239 13.239 13.239 0 0 0 13.239 13.238 13.239 13.239 0 0 0 13.239-13.238 13.239 13.239 0 0 0-13.239-13.24zm.038 2.648c3.836-.021 7.564 2.254 9.34 5.656 2.125 3.958 1.343 9.218-1.87 12.366-2.883 3.04-7.647 3.959-11.495 2.353-4.282-1.605-6.99-6.298-6.546-10.8.378-5.001 4.809-9.274 9.803-9.54.256-.022.512-.033.768-.035z"/><path d="M37.721 28.457c-4.21.064-7.263 5.182-5.388 8.932 1.485 3.518 6.562 4.833 9.507 2.35 3.048-2.263 3.195-7.386.229-9.779-1.198-1.01-2.78-1.57-4.348-1.503zm75.076.024c-4.136.058-7.169 5.006-5.48 8.743.998 2.538 3.833 4.071 6.514 3.788 2.971-.222 5.41-2.972 5.452-5.922.145-2.412-1.155-4.906-3.394-5.924a6.14 6.14 0 0 0-3.092-.685z"/></svg>