<svg viewBox="0 0 97.92 97.92" xmlns="http://www.w3.org/2000/svg">
    <path d="M20.787 87.675 1.349 53.831a10.188 10.188 0 0 1 0-10.133L20.787 9.88a10.097 10.097 0 0 1 8.744-5.075h38.85c3.606 0 6.954 1.931 8.744 5.075l19.446 33.835a10.188 10.188 0 0 1 0 10.133L77.133 87.692a10.097 10.097 0 0 1-8.744 5.075H29.556a10.185 10.185 0 0 1-8.77-5.092z" fill="#fff"/>
    <path d="M22.412 85.405 4.134 53.702a9.479 9.479 0 0 1 0-9.493L22.412 12.5a9.519 9.519 0 0 1 8.236-4.756h36.558a9.508 9.508 0 0 1 8.236 4.755l18.295 31.695a9.479 9.479 0 0 1 0 9.493L75.45 85.414a9.519 9.519 0 0 1-8.236 4.755h-36.55a9.533 9.533 0 0 1-8.252-4.764z" fill="#71b1b7"/>
    <g fill="#e5e5e5">
        <path d="m29.272 46.03 11.552-.042v-3.763c-.017.884-1.896 1.563-2.731 1.639-2.414.217-4.495.15-6.735 0-1.045-.07-1.952-.56-3.073-1.31.574 1.004.943 1.807.987 3.475zM42.288 46.03h13.326v-4.01c0 .892-1.81 1.754-2.392 1.821-3.137.36-4.994.236-7.866 0-1.059-.087-3.068-1.067-3.068-1.992zM68.645 46.03H57.11l-.031-3.773c.017.884 1.896 1.564 2.73 1.639 2.415.217 4.496.15 6.736 0 1.045-.07 1.952-.56 3.073-1.31-.974 1.18-.974 1.81-.974 3.443zM29.272 54.934v1.912l39.373-.017v-1.866c-.18.186-.63.369-1.008.369h-8.825c-.81 0-1.375-.652-1.7-1.051h-1.498c-.39.389-1.077 1.04-1.865 1.05l-9.687.01c-.961-.01-1.4-.602-1.774-1.074l-1.464.014c-.424.717-.892 1.05-1.41 1.05H30.57c-.432 0-.97-.166-1.298-.396z"/>
    </g>
    <g fill="#fcfcfc">
        <path d="M29.272 51.59v-3.385c0-.238.117-.363.363-.363h9.532c.854 0 1.657.985 1.657 1.462v2.061c0 1.057-1.14 2.281-2.25 2.281h-7.268c-.74 0-2.034-.871-2.034-2.057zM68.645 51.59v-3.385c0-.238-.117-.363-.362-.363h-9.517c-.853 0-1.655.985-1.655 1.462v2.061c0 1.057 1.139 2.281 2.247 2.281h7.256c.74 0 2.03-.871 2.03-2.057zM42.288 49.792c0-.813 1.467-1.95 2.222-1.95h9.194c1.09 0 1.977 1.123 1.91 1.662v1.679c0 .989-1.05 2.463-2.396 2.463h-8.214c-.83 0-2.716-.745-2.716-2.243zM24.158 40.096v-2.63c.013-1.776 2.093-5.325 6.01-5.325h8.03c1.648 0 2.626 1.551 2.626 2.573v7.51c-.017.885-1.896 1.564-2.731 1.64-2.414.217-4.495.15-6.735 0-1.045-.07-1.952-.56-3.073-1.31-1.034-1.15-1.795-2.197-4.127-2.458zM42.288 34.275c0-.945 1.985-2.134 2.628-2.134h8.413c.796 0 2.343 1.227 2.285 2.37v7.509c0 .892-1.81 1.754-2.392 1.821-3.137.36-4.994.236-7.866 0-1.059-.087-3.068-1.067-3.068-1.992zM73.37 40.16v-2.63c-.012-1.776-1.717-5.357-5.633-5.357h-8.03c-1.649 0-2.627 1.552-2.627 2.574v7.51c.017.884 1.896 1.564 2.73 1.639 2.415.217 4.496.15 6.736 0 1.045-.07 1.952-.56 3.073-1.31 1.034-1.15 1.42-2.165 3.752-2.427zM27.88 61.396l-.035-15.367c.034-1.902-1.849-4.695-4.564-4.695-2.716 0-4.604 1.671-4.604 4.695 0 1.813 2.587 3.228 3.815 3.251v10.828c0 .645.673 1.288 1.374 1.288zM69.975 61.396l.034-15.367c-.034-1.902 1.849-4.695 4.564-4.695 2.716 0 4.604 1.671 4.604 4.695 0 1.813-2.587 3.228-3.814 3.251v10.828c0 .645-.674 1.288-1.375 1.288zM22.492 65.766l5.387-.026v-2.532l-5.387-.238v2.796M75.154 65.78l-5.388-.027v-2.531l5.388-.239v2.796M29.272 56.846l39.373-.017v4.875H29.272z"/>
    </g>
</svg>
